<svg width="400" height="300" xmlns="http://www.w3.org/2000/svg"
    xmlns:xlink="http://www.w3.org/1999/xlink" version="1.1" baseProfile="full"
    style="position:absolute;left:0;top:0;user-select:none">
    <rect width="400" height="300" x="0" y="0" id="0" fill="none"></rect>
    <g>
        <text dominant-baseline="central" text-anchor="middle"
            style="font-size:12px;font-family:sans-serif;" xml:space="preserve" y="6"
            transform="translate(200 260)" fill="#6E7079">xAxis name</text>
        <text dominant-baseline="central" text-anchor="middle"
            style="font-size:12px;font-family:sans-serif;" y="6" transform="translate(108.5714 238)"
            fill="#6E7079">21</text>
        <text dominant-baseline="central" text-anchor="middle"
            style="font-size:12px;font-family:sans-serif;" y="6" transform="translate(177.1429 238)"
            fill="#6E7079">24</text>
        <text dominant-baseline="central" text-anchor="middle"
            style="font-size:12px;font-family:sans-serif;" y="6" transform="translate(245.7143 238)"
            fill="#6E7079">27</text>
        <text dominant-baseline="central" text-anchor="middle"
            style="font-size:12px;font-family:sans-serif;" y="6" transform="translate(314.2857 238)"
            fill="#6E7079">30</text>
        <path
            d="M154.2857 76.75L154.2857 85.75L268.5714 85.75L268.5714 76.75ZM85.7143 81.25L154.2857 81.25M360 81.25L268.5714 81.25M85.7143 76.75L85.7143 85.75M360 76.75L360 85.75M200 76.75L200 85.75"
            fill="red" stroke="black"></path>
        <path
            d="M200 119.25L200 128.25L291.4286 128.25L291.4286 119.25ZM154.2857 123.75L200 123.75M337.1429 123.75L291.4286 123.75M154.2857 119.25L154.2857 128.25M337.1429 119.25L337.1429 128.25M245.7143 119.25L245.7143 128.25"
            fill="rgb(255,0,0)" stroke="black"></path>
        <path
            d="M108.5714 161.75L108.5714 170.75L200 170.75L200 161.75ZM62.8571 166.25L108.5714 166.25M291.4286 166.25L200 166.25M62.8571 161.75L62.8571 170.75M291.4286 161.75L291.4286 170.75M177.1429 161.75L177.1429 170.75"
            fill="red" stroke="black"></path>
        <path
            d="M177.1429 204.25L177.1429 213.25L222.8571 213.25L222.8571 204.25ZM40 208.75L177.1429 208.75M291.4286 208.75L222.8571 208.75M40 204.25L40 213.25M291.4286 204.25L291.4286 213.25M200 204.25L200 213.25"
            fill="red" stroke="black"></path>
        <path d="M-5 -5l98.6904 0l0 28l-98.6904 0Z" transform="translate(5 5)" fill="rgb(0,0,0)"
            fill-opacity="0" stroke="#ccc" stroke-width="0"></path>
        <text dominant-baseline="central" text-anchor="start"
            style="font-size:18px;font-family:sans-serif;font-weight:bold;" xml:space="preserve"
            y="9" transform="translate(5 5)" fill="#464646">Chart Title</text>
    </g>
</svg>